# xmcd CD database file
#
# Track frame offsets:
#	182
#	8315
#	37475
#	82390
#	103540
#	138945
#	188552
#	226500
#
# Disc length: 3133 seconds
#
# Revision: 0
# Processed by: cddbd v1.5PL3 Copyright (c) Steve Scherf et al.
# Submitted via: CDex 1.51
#
DISCID=590c3b08
DTITLE=Sophia Domancich Trio - La Part des Anges
DYEAR=1997
DGENRE=Jazz
TTITLE0=11 Juillet
TTITLE1=La Part des Anges
TTITLE2=Sur les Traces...
TTITLE3=Ondine
TTITLE4=Together
TTITLE5=Corbeau Carnivore
TTITLE6=d'Alice
TTITLE7=11 Juillet
EXTD=YEAR: 1997
EXTT0=
EXTT1=
EXTT2=
EXTT3=
EXTT4=
EXTT5=
EXTT6=
EXTT7=
PLAYORDER=
